<svg width="875" height="303" viewBox="0 0 875 303" fill="none" xmlns="http://www.w3.org/2000/svg">
<path d="M50.8333 233.096C41.0705 234.272 32.5838 232.105 25.3731 226.594C18.1425 220.918 13.9493 213.281 12.7934 203.684C11.6375 194.087 13.8976 185.673 19.5737 178.442C25.2499 171.212 32.9693 167.008 42.7321 165.833C52.4949 164.657 60.9088 166.917 67.974 172.613C75.1846 178.124 79.3779 185.76 80.5537 195.523C81.7096 205.12 79.4495 213.534 73.7734 220.765C68.0773 227.83 60.4306 231.941 50.8333 233.096ZM329.934 132.753C348.467 130.521 363.272 134.278 374.35 144.023C385.428 153.768 392.093 167.99 394.345 186.688C396.039 200.753 394.297 213.469 389.119 224.837C384.107 236.184 375.662 245.511 363.783 252.817C351.905 260.123 337.031 264.852 319.16 267.005C307.08 268.459 294.842 268.591 282.443 267.398C270.025 266.04 258.861 263.943 248.951 261.108L242.583 208.24C265.31 215.743 285.444 218.438 302.984 216.325C312.085 215.229 318.65 212.592 322.679 208.413C326.688 204.07 328.215 197.926 327.258 189.984C326.561 184.192 324.689 179.801 321.643 176.811C318.596 173.82 314.178 172.674 308.386 173.371C303.918 173.909 300.418 175.506 297.884 178.161C295.495 180.631 293.723 184.034 292.566 188.37L240.443 194.648L237.155 77.4503L369.201 61.5468L375.001 109.699L292.596 119.624L293.441 145.458C303.208 138.742 315.372 134.507 329.934 132.753ZM497.215 245.56C469.25 248.928 446.7 243.586 429.563 229.534C412.592 215.463 402.004 190.97 397.799 156.055C393.594 121.141 398.064 94.8344 411.208 77.1357C424.519 59.417 445.156 48.8736 473.12 45.5056C501.085 42.1376 523.553 47.4894 540.524 61.561C557.66 75.6128 568.331 100.096 572.536 135.01C576.422 167.277 572.369 192.862 560.377 211.765C548.55 230.648 527.496 241.913 497.215 245.56ZM491.894 201.379C503.146 200.024 508.034 193.224 506.56 180.979L497.532 106.021C496.057 93.776 489.694 88.3312 478.442 89.6863C467.19 91.0415 462.301 97.8415 463.776 110.086L472.804 185.045C474.278 197.29 480.642 202.734 491.894 201.379ZM698.523 120.592C671.551 123.84 656.072 108.917 652.086 75.8233C649.974 58.2834 651.914 45.1236 657.907 36.344C663.901 27.5644 673.433 22.3874 686.505 20.8129C713.643 17.5446 729.224 32.6229 733.25 66.0481C735.183 82.0987 733.441 94.8149 728.024 104.197C722.587 113.413 712.753 118.878 698.523 120.592ZM695.922 98.9979C700.721 98.42 702.751 95.0698 702.014 88.9474L697.38 50.4754C696.663 44.5185 693.905 41.829 689.106 42.4069C684.473 42.9649 682.515 46.2224 683.233 52.1794L687.866 90.6513C688.604 96.7737 691.289 99.556 695.922 98.9979ZM701.623 217.416L700.666 209.473L793.781 10.4108L819.098 7.36165L820.055 15.3043L727.188 214.337L701.623 217.416ZM833.967 203.995C806.996 207.243 791.517 192.32 787.531 159.226C785.419 141.686 787.359 128.526 793.352 119.747C799.345 110.967 808.878 105.79 821.95 104.216C849.087 100.947 864.669 116.026 868.694 149.451C870.628 165.501 868.886 178.218 863.469 187.599C858.032 196.816 848.198 202.281 833.967 203.995ZM831.367 182.401C836.165 181.823 838.196 178.472 837.459 172.35L832.825 133.878C832.108 127.921 829.35 125.232 824.551 125.81C819.918 126.368 817.96 129.625 818.677 135.582L823.311 174.054C824.048 180.176 826.733 182.959 831.367 182.401Z" fill="#FF0000"/>
</svg>
