<svg width="1418" height="202" viewBox="0 0 1418 202" fill="none" xmlns="http://www.w3.org/2000/svg">
<path d="M185.5 157H195.5V198H97.5V157H112.5L108.5 137H74.5L70.5 157H85.5V198H2.6077e-08V157H10L52.25 3.49999H143.25L185.5 157ZM80 110.5H103L92.75 60.75H90.25L80 110.5ZM203.416 157H215.916V44.5H203.416V3.49999H318.166C338.999 3.49999 355.249 7.74999 366.916 16.25C378.583 24.75 384.416 36.9167 384.416 52.75C384.416 62.5833 382.083 70.9167 377.416 77.75C372.749 84.4167 367.249 89.5 360.916 93C354.749 96.3333 348.749 98.5833 342.916 99.75V102.25C354.749 103.417 365.416 107.167 374.916 113.5C384.416 119.833 389.166 131.167 389.166 147.5C389.166 165 382.583 177.833 369.416 186C356.249 194 339.166 198 318.166 198H203.416V157ZM299.416 85.5C304.249 85.5 307.833 84.25 310.166 81.75C312.666 79.0833 313.916 75 313.916 69.5V60.5C313.916 55 312.666 51 310.166 48.5C307.833 45.8333 304.249 44.5 299.416 44.5H285.916V85.5H299.416ZM301.166 157C305.999 157 309.583 155.75 311.916 153.25C314.416 150.583 315.666 146.5 315.666 141V130C315.666 124.5 314.416 120.5 311.916 118C309.583 115.333 305.999 114 301.166 114H285.916V157H301.166ZM491.264 201.5C460.764 201.5 437.18 193.5 420.514 177.5C404.014 161.5 395.764 135.917 395.764 100.75C395.764 65.5833 404.014 40 420.514 24C437.18 7.99999 460.764 -1.38283e-05 491.264 -1.38283e-05C521.764 -1.38283e-05 545.264 7.99999 561.764 24C578.43 40 586.764 65.5833 586.764 100.75C586.764 135.917 578.43 161.5 561.764 177.5C545.264 193.5 521.764 201.5 491.264 201.5ZM491.264 157C496.93 157 501.18 155.5 504.014 152.5C506.847 149.5 508.264 144.833 508.264 138.5V63C508.264 56.6667 506.847 52 504.014 49C501.18 46 496.93 44.5 491.264 44.5C485.597 44.5 481.347 46 478.514 49C475.68 52 474.264 56.6667 474.264 63V138.5C474.264 145 475.68 149.75 478.514 152.75C481.347 155.583 485.597 157 491.264 157ZM688.762 201.5C662.595 201.5 642.345 195.75 628.012 184.25C613.845 172.75 606.762 154.083 606.762 128.25V44.5H594.262V3.49999H686.762V44.5H676.762V141C676.762 146.5 677.928 150.583 680.262 153.25C682.762 155.75 686.428 157 691.262 157C696.095 157 699.678 155.75 702.012 153.25C704.512 150.583 705.762 146.5 705.762 141V44.5H695.762V3.49999H781.512V44.5H769.012V128.25C769.012 154.083 762.095 172.75 748.262 184.25C734.428 195.75 714.595 201.5 688.762 201.5ZM977.074 64H934.074V44.5H918.074V157H935.574V198H830.574V157H848.074V44.5H832.074V64H789.074V3.49999H977.074V64ZM1154.09 201.5C1127.93 201.5 1107.68 195.75 1093.34 184.25C1079.18 172.75 1072.09 154.083 1072.09 128.25V44.5H1059.59V3.49999H1152.09V44.5H1142.09V141C1142.09 146.5 1143.26 150.583 1145.59 153.25C1148.09 155.75 1151.76 157 1156.59 157C1161.43 157 1165.01 155.75 1167.34 153.25C1169.84 150.583 1171.09 146.5 1171.09 141V44.5H1161.09V3.49999H1246.84V44.5H1234.34V128.25C1234.34 154.083 1227.43 172.75 1213.59 184.25C1199.76 195.75 1179.93 201.5 1154.09 201.5ZM1333.41 201.5C1317.41 201.5 1302.24 200.167 1287.91 197.5C1273.74 194.667 1262.82 191.5 1255.16 188V138.5H1310.16C1310.16 143.667 1311.32 147.417 1313.66 149.75C1315.99 152.083 1320.24 153.25 1326.41 153.25C1331.57 153.25 1335.24 152.5 1337.41 151C1339.74 149.333 1340.91 146.917 1340.91 143.75C1340.91 141.083 1339.82 138.833 1337.66 137C1335.49 135 1331.74 133 1326.41 131L1304.91 123.5C1286.41 116.5 1273.07 108.25 1264.91 98.75C1256.91 89.25 1252.91 76.4167 1252.91 60.25C1252.91 40.5833 1259.32 25.6667 1272.16 15.5C1285.16 5.16666 1306.74 -1.38283e-05 1336.91 -1.38283e-05C1351.41 -1.38283e-05 1364.99 1.49999 1377.66 4.49999C1390.49 7.33332 1400.82 11.1667 1408.66 16V60.75H1358.66C1358.66 52.4167 1353.49 48.25 1343.16 48.25C1338.16 48.25 1334.57 48.9167 1332.41 50.25C1330.41 51.4167 1329.41 53.5833 1329.41 56.75C1329.41 59.5833 1330.57 61.8333 1332.91 63.5C1335.41 65.1667 1339.41 66.9167 1344.91 68.75L1366.66 76.25C1384.32 82.25 1397.16 90.0833 1405.16 99.75C1413.32 109.25 1417.41 121.75 1417.41 137.25C1417.41 158.417 1410.24 174.417 1395.91 185.25C1381.74 196.083 1360.91 201.5 1333.41 201.5Z" fill="white" fill-opacity="0.59"/>
</svg>
