<svg width="121" height="113" viewBox="0 0 121 113" fill="none" xmlns="http://www.w3.org/2000/svg">
<g clip-path="url(#clip0_17_58)">
<path d="M113.924 39.7746C106.521 20.1135 87.1056 5.55612 64.1064 3.94073C32.8304 1.74401 6.31659 23.9677 4.31146 52.5157C2.30634 81.0638 25.7505 106.386 56.758 108.564C87.7654 110.742 114.927 89.4296 116.964 60.4281C117.457 53.3988 116.425 46.4445 113.901 39.7502L113.924 39.7746Z" fill="white"/>
<path d="M93.1957 74.2994L84.9568 65.4946C82.6745 63.0556 78.7192 62.7778 76.1428 64.8756L71.8775 68.313C69.9269 69.8851 66.9238 69.6741 65.1877 67.8432L48.9624 50.4792C47.2279 48.6255 47.4222 45.8592 49.3988 44.2662L53.6641 40.8287C56.2389 38.7536 56.5213 35.0819 54.239 32.6429L45.9984 23.8608C43.7162 21.4218 39.7609 21.144 37.1845 23.2418C35.2599 24.7928 34.6373 25.2732 33.7547 25.9632C24.4178 33.4879 23.4877 46.7302 31.681 55.4863L57.4006 82.9965C65.6168 91.7769 79.8265 92.775 89.1893 85.2293L92.5964 82.4835C95.1972 80.3874 95.4552 76.714 93.1713 74.2977L93.1957 74.2994ZM81.8358 68.0099L90.0748 76.8147C90.8279 77.6195 90.7419 78.844 89.8837 79.5357L88.3232 80.7933L77.3455 69.0617L78.906 67.8041C79.7642 67.1124 81.0827 67.205 81.8358 68.0099ZM42.8775 26.3761L51.1181 35.1582C51.8712 35.9631 51.7852 37.1875 50.927 37.8792L49.3665 39.1368L38.3888 27.4052L39.9477 26.1703C40.8059 25.4786 42.1243 25.5712 42.8775 26.3761ZM60.5476 80.4603L34.828 52.9501C28.4833 46.1696 28.8115 36.2575 35.289 29.9675L46.2439 41.6747C42.9399 44.7012 42.7147 49.653 45.843 52.9717L62.0684 70.3357C65.1723 73.6528 70.4852 74.1627 74.1773 71.5508L85.1322 83.2581C77.5379 88.3303 66.9379 87.2895 60.5476 80.4603Z" fill="#ED1C24"/>
</g>
<defs>
<clipPath id="clip0_17_58">
<rect width="112.954" height="104.904" fill="white" transform="translate(8) rotate(4.01767)"/>
</clipPath>
</defs>
</svg>
