<svg width="34" height="29" viewBox="0 0 34 29" fill="none" xmlns="http://www.w3.org/2000/svg">
<g clip-path="url(#clip0_12_139)">
<path d="M11.9368 12.992C11.5094 12.992 11.1078 12.829 10.8063 12.5315L8.61048 10.373H1.78101V13.2274H32.2189V10.373H25.3531L23.1563 12.5315C22.8542 12.829 22.4531 12.992 22.0257 12.992C21.5984 12.992 21.1963 12.829 20.8942 12.5315C20.291 11.9386 20.2773 10.9892 20.84 10.373H13.1215C13.3863 10.6617 13.5363 11.0275 13.5363 11.4197C13.5363 11.8398 13.37 12.2351 13.0673 12.5315C12.7657 12.829 12.3642 12.992 11.9363 12.992H11.9368Z" fill="#AAD4C8"/>
<path d="M0.261053 8.87854C0.0952632 9.04151 0 9.26657 0 9.4968V14.1014C0 14.3321 0.0952632 14.5577 0.261053 14.7196C0.427368 14.8831 0.656316 14.9768 0.891053 14.9768H2.83105L6.02316 28.0413C6.16158 28.6027 6.67316 28.9995 7.26105 28.9995H27.0379C27.6253 28.9995 28.1353 28.6058 28.2742 28.0439L31.5005 14.9768H33.1089C33.3432 14.9768 33.5726 14.8831 33.7389 14.7196C33.9042 14.5572 33.9995 14.3321 33.9995 14.1014V9.4968C33.9995 9.26605 33.9042 9.04151 33.7389 8.87854C33.5732 8.71557 33.3437 8.62245 33.1089 8.62245H27.1332L33.1737 2.6841C33.4758 2.38662 33.6432 1.99186 33.6432 1.57228C33.6432 1.15269 33.4763 0.757426 33.1737 0.460457C32.8726 0.162971 32.4711 0 32.0432 0C31.6153 0 31.2142 0.162971 30.9121 0.460457L22.6084 8.62245H11.3532L3.05053 0.460457C2.74842 0.162971 2.34632 0 1.91947 0C1.49263 0 1.09105 0.162971 0.788421 0.45994C0.485789 0.757943 0.319474 1.15218 0.319474 1.5728C0.319474 1.99342 0.485789 2.38817 0.788421 2.68462L6.82895 8.62296H0.891053C0.656316 8.62296 0.427368 8.71609 0.261053 8.87906V8.87854ZM9.82684 23.399C9.82684 23.7534 9.53474 24.04 9.17368 24.04C8.81263 24.04 8.52105 23.7534 8.52105 23.399V16.6013C8.52105 16.2469 8.81316 15.9587 9.17368 15.9587C9.53421 15.9587 9.82684 16.2469 9.82684 16.6013V23.399ZM17.6532 24.6701C17.6532 25.0245 17.3611 25.3117 17 25.3117C16.6389 25.3117 16.3468 25.0245 16.3468 24.6701V16.6013C16.3468 16.2469 16.6389 15.9587 17 15.9587C17.3611 15.9587 17.6532 16.2469 17.6532 16.6013V24.6701ZM25.4795 23.399C25.4795 23.7534 25.1868 24.04 24.8268 24.04C24.4668 24.04 24.1732 23.7534 24.1732 23.399V16.6013C24.1732 16.2469 24.4658 15.9587 24.8268 15.9587C25.1879 15.9587 25.4795 16.2469 25.4795 16.6013V23.399ZM1.78105 10.3727H8.61L10.8058 12.5312C11.1074 12.8286 11.5089 12.9916 11.9363 12.9916C12.3637 12.9916 12.7658 12.8286 13.0674 12.5312C13.37 12.2347 13.5363 11.84 13.5363 11.4193C13.5363 11.0272 13.3863 10.6614 13.1216 10.3727H20.84C20.2774 10.9884 20.2911 11.9377 20.8942 12.5312C21.1963 12.8286 21.5979 12.9916 22.0258 12.9916C22.4537 12.9916 22.8542 12.8286 23.1563 12.5312L25.3532 10.3727H32.2189V13.227H1.78105V10.3727Z" fill="#FF0000"/>
<path d="M16.3469 16.6011V24.6699C16.3469 25.0243 16.639 25.3115 17.0001 25.3115C17.3611 25.3115 17.6532 25.0243 17.6532 24.6699V16.6011C17.6532 16.2467 17.3611 15.9585 17.0001 15.9585C16.639 15.9585 16.3469 16.2467 16.3469 16.6011Z" fill="#82BFAB"/>
<path d="M8.521 16.6011V23.3988C8.521 23.7532 8.8131 24.0398 9.17363 24.0398C9.53415 24.0398 9.82679 23.7532 9.82679 23.3988V16.6011C9.82679 16.2467 9.53468 15.9585 9.17363 15.9585C8.81258 15.9585 8.521 16.2467 8.521 16.6011Z" fill="#82BFAB"/>
<path d="M24.1731 16.6011V23.3988C24.1731 23.7532 24.4657 24.0398 24.8268 24.0398C25.1878 24.0398 25.4794 23.7532 25.4794 23.3988V16.6011C25.4794 16.2467 25.1868 15.9585 24.8268 15.9585C24.4668 15.9585 24.1731 16.2467 24.1731 16.6011Z" fill="#82BFAB"/>
</g>
<defs>
<clipPath id="clip0_12_139">
<rect width="34" height="29" fill="white"/>
</clipPath>
</defs>
</svg>
