<svg width="105" height="105" viewBox="0 0 105 105" fill="none" xmlns="http://www.w3.org/2000/svg">
<g clip-path="url(#clip0_17_62)">
<path d="M100.814 32.2849C92.6685 13.1733 73.7161 0 52.2839 0C23.1387 0 0 24.0488 0 52.7161C0 81.3835 23.3889 105 52.2839 105C81.1788 105 104.977 81.8158 104.977 52.7161C104.977 45.6631 103.567 38.792 100.791 32.2849H100.814Z" fill="white"/>
<path d="M52.4886 16.1768C38.4052 16.1768 26.9382 27.6437 26.9382 41.7271C26.9382 46.4823 28.2578 51.1237 30.7606 55.1508L51.0325 87.8225C51.4193 88.4595 52.1018 88.8236 52.8299 88.8236C53.5807 88.8236 54.2633 88.4368 54.65 87.7997L74.3987 54.8095C76.7649 50.8734 77.9935 46.3458 77.9935 41.7271C77.9935 27.6437 66.5265 16.1768 52.4431 16.1768H52.4886ZM70.7811 52.6253L52.8071 82.6123L34.3781 52.8983C32.3077 49.5538 31.1701 45.686 31.1701 41.7044C31.1701 29.9644 40.7486 20.3859 52.4886 20.3859C64.2286 20.3859 73.7844 29.9644 73.7844 41.7044C73.7844 45.5495 72.7378 49.3263 70.7811 52.6025V52.6253Z" fill="#ED1C24"/>
<path d="M52.4887 28.9404C45.4356 28.9404 39.7249 34.6739 39.7249 41.7042C39.7249 48.7346 45.3673 54.4681 52.4887 54.4681C59.61 54.4681 65.2525 48.6208 65.2525 41.7042C65.2525 34.7877 59.519 28.9404 52.4887 28.9404ZM52.4887 50.259C47.779 50.259 43.9567 46.4139 43.9567 41.727C43.9567 37.0401 47.8018 33.195 52.4887 33.195C57.1756 33.195 61.0206 37.0401 61.0206 41.727C61.0206 46.4139 57.2893 50.259 52.4887 50.259Z" fill="#ED1C24"/>
</g>
<defs>
<clipPath id="clip0_17_62">
<rect width="105" height="105" fill="white"/>
</clipPath>
</defs>
</svg>
