<svg width="15" height="15" viewBox="0 0 15 15" fill="none" xmlns="http://www.w3.org/2000/svg">
<path d="M14.1984 13.5095L10.5991 9.92391C11.3532 8.96116 11.8044 7.75166 11.8044 6.43861C11.8044 3.30911 9.24788 0.762329 6.10642 0.762329C2.96496 0.762329 0.408447 3.30911 0.408447 6.43861C0.408447 9.56811 2.96496 12.1149 6.10642 12.1149C7.42448 12.1149 8.63861 11.6655 9.60504 10.9142L13.2043 14.4997C13.3414 14.6363 13.5216 14.7046 13.7019 14.7046C13.8821 14.7046 14.0623 14.6363 14.1995 14.4997C14.4726 14.2266 14.4726 13.7837 14.1984 13.5095ZM1.81497 6.43971C1.81497 4.0824 3.7401 2.1646 6.10642 2.1646C8.47274 2.1646 10.3979 4.0824 10.3979 6.43971C10.3979 8.79703 8.47274 10.7148 6.10642 10.7148C3.7401 10.7148 1.81497 8.79703 1.81497 6.43971Z" fill="#6C767C"/>
</svg>
