<svg width="108" height="106" viewBox="0 0 108 106" fill="none" xmlns="http://www.w3.org/2000/svg">
<g clip-path="url(#clip0_17_67)">
<path d="M103.694 32.5924C95.3162 13.2988 75.8223 0 53.7777 0C23.7998 0 0 24.2778 0 53.1952C0 82.1127 24.0572 105.977 53.7777 105.977C83.4982 105.977 107.977 82.572 107.977 53.1952C107.977 46.075 106.526 39.1385 103.671 32.5694L103.694 32.5924Z" fill="white"/>
<path d="M46.6166 52.6669C50.6651 55.2165 55.6497 55.4921 60.2833 53.4019C61.2662 52.9655 61.6874 51.8171 61.2428 50.8524C60.7982 49.8877 59.6281 49.4743 58.6452 49.9107C55.2519 51.4266 51.648 51.2659 48.7462 49.4284C45.9145 47.6368 44.2062 44.605 44.2062 41.3205C44.2062 36.0147 48.6058 31.6966 54.0116 31.6966C59.4175 31.6966 63.817 36.0147 63.817 41.3205C63.817 42.377 62.9277 43.2498 61.8513 43.2498C60.8684 43.2498 59.9323 42.5148 59.8855 41.3434C59.8855 38.1278 57.2411 35.5324 54.0116 35.5324C50.7821 35.5324 48.1377 38.1278 48.1377 41.2975C48.1377 44.4672 50.7821 47.0626 54.0116 47.0626C55.5093 47.0626 56.89 46.5114 57.9431 45.5926C58.9962 46.5114 60.3535 47.0626 61.8747 47.0626C65.1275 47.0626 67.7485 44.4672 67.7485 41.2975C67.7485 33.8557 61.5938 27.8149 54.0116 27.8149C46.4294 27.8149 40.2747 33.8557 40.2747 41.2975C40.2747 45.9142 42.6383 50.1634 46.6166 52.644V52.6669ZM54.0116 43.2269C52.9351 43.2269 52.0458 42.3541 52.0458 41.2975C52.0458 40.2409 52.9351 39.3681 54.0116 39.3681C55.0179 39.3681 55.837 40.1261 55.954 41.0678C55.9306 41.2516 55.9306 41.4123 55.954 41.5961C55.8136 42.5148 54.9945 43.2039 54.0116 43.2039V43.2269Z" fill="#ED1C24"/>
<path d="M83.4279 45.432C83.4279 44.9267 83.2173 44.4443 82.8429 44.0768L75.5649 36.9336V22.0729C75.5649 21.0164 74.6756 20.1436 73.5991 20.1436H34.3774C33.3009 20.1436 32.4117 21.0164 32.4117 22.0729V36.9336L25.1337 44.0768C24.7592 44.4673 24.572 44.9496 24.572 45.432V80.0916C24.572 83.2842 27.2164 85.8567 30.4459 85.8567H77.5306C80.7835 85.8567 83.4045 83.2612 83.4045 80.0916V45.432H83.4279ZM78.7007 45.432L75.5883 48.4868V42.3771L78.7007 45.432ZM71.6567 24.0023V37.7375V52.3455L61.0323 62.7732H46.9677L36.3432 52.3455V37.7375V24.0023H71.6567ZM32.4117 48.4868L29.2992 45.432L32.4117 42.3771V48.4868ZM28.4801 79.2877V50.0716L43.3638 64.6796L28.4801 79.2877ZM31.265 82.0209L46.9677 66.609H61.0323L76.735 82.0209H31.265ZM79.4964 79.2877L64.6128 64.6796L79.4964 50.0716V79.2877Z" fill="#ED1C24"/>
</g>
<defs>
<clipPath id="clip0_17_67">
<rect width="108" height="106" fill="white"/>
</clipPath>
</defs>
</svg>
